# xmcd
#
# Track frame offsets:
#	150
#	16337
#	35213
#	50677
#	69918
#	88879
#	107786
#	122721
#	143752
#	168917
#	184927
#	199762
#
# Disc length: 2885 seconds
# Revision: 1
# Processed by: cddbd v1.5.2PL0 Copyright (c) Steve Scherf et al.
# Submitted via: dBpowerAMP V12.0
#
DISCID=ab0b430c
DTITLE=Dolly Parton - Backwoods Barbie [CDA]
DYEAR=2008
DGENRE=Country*
TTITLE0=Better Get To Livin'
TTITLE1=Shinola
TTITLE2=I Will Forever Hate Roses
TTITLE3=Somebody's Everything
TTITLE4=Made Of Stone
TTITLE5=Drives Me Crazy
TTITLE6=Backwoods Barbie
TTITLE7=Jesus and Gravity
TTITLE8=Only Dreamin'
TTITLE9=The Tracks Of My Tears
TTITLE10=The Lonesomes
TTITLE11=Cologne
EXTD=
EXTT0=
EXTT1=
EXTT2=
EXTT3=
EXTT4=
EXTT5=
EXTT6=
EXTT7=
EXTT8=
EXTT9=
EXTT10=
EXTT11=
PLAYORDER=
